# xmcd
#
# Track frame offsets:
#	150
#	11023
#	21786
#	46866
#	66693
#	86579
#	107941
#	136082
#	156238
#	172405
#	189877
#	220303
#	234188
#	249466
#	273031
#	283299
#	301409
#	325892
#
# Disc length: 4671 seconds
#
# Revision: 1
# Processed by: cddbd v1.5.2PL0 Copyright (c) Steve Scherf et al.
# Submitted via: audiograbber 1.83.01
#
DISCID=02123d12
DTITLE=Fullhouse Bluesband - Live im STEP, 14.12.90
DYEAR=1990
DGENRE=Bluesrock
TTITLE0=Hideaway
TTITLE1=V8-Ford
TTITLE2=Can't hold on much longer
TTITLE3=Messin' with your Hoochie Coo
TTITLE4=Key to the highway
TTITLE5=Orange driver
TTITLE6=Long distance call
TTITLE7=Black limousine
TTITLE8=Boom boom (out go the lights)
TTITLE9=One step at a time
TTITLE10=Sad and lonely
TTITLE11=Stop breakin' down
TTITLE12=Shake your moneymaker
TTITLE13=Crossroads
TTITLE14=Steppin' out
TTITLE15=Mercury Blues
TTITLE16=Let it bleed
TTITLE17=Sweet home Chicago
EXTD=
EXTT0=
EXTT1=
EXTT2=
EXTT3=
EXTT4=
EXTT5=
EXTT6=
EXTT7=
EXTT8=
EXTT9=
EXTT10=
EXTT11=
EXTT12=
EXTT13=
EXTT14=
EXTT15=
EXTT16=
EXTT17=
PLAYORDER=
